HIERARCHY
ROOT Hips
{
	OFFSET 0.00000 0.00000 0.00000
	CHANNELS 6 Xposition Yposition Zposition Zrotation Yrotation Xrotation 
	JOINT LHipJoint
	{
		OFFSET 0 0 0
		CHANNELS 3 Zrotation Yrotation Xrotation
		JOINT LeftHip
		{
			OFFSET 1.58895 -1.83665 0.71753
			CHANNELS 3 Zrotation Yrotation Xrotation
			JOINT LeftKnee
			{
				OFFSET 2.50528 -6.88321 0.00000
				CHANNELS 3 Zrotation Yrotation Xrotation
				JOINT LeftAnkle
				{
					OFFSET 2.63244 -7.23257 0.00000
					CHANNELS 3 Zrotation Yrotation Xrotation
					JOINT LeftToe
					{
						OFFSET 0.23691 -0.65090 1.72750
						CHANNELS 3 Zrotation Yrotation Xrotation
						End Site
						{
							OFFSET 0.00000 -0.00000 0.92561
						}
					}
				}
			}
		}
	}
	JOINT RHipJoint
	{
		OFFSET 0 0 0
		CHANNELS 3 Zrotation Yrotation Xrotation
		JOINT RightHip
		{
			OFFSET -1.51435 -1.83665 0.71753
			CHANNELS 3 Zrotation Yrotation Xrotation
			JOINT RightKnee
			{
				OFFSET -2.54551 -6.99375 0.00000
				CHANNELS 3 Zrotation Yrotation Xrotation
				JOINT RightAnkle
				{
					OFFSET -2.66027 -7.30903 0.00000
					CHANNELS 3 Zrotation Yrotation Xrotation
					JOINT RightToe
					{
						OFFSET -0.22981 -0.63138 2.03959
						CHANNELS 3 Zrotation Yrotation Xrotation
						End Site
						{
							OFFSET -0.00000 -0.00000 1.07060
						}
					}
				}
			}
		}
	}
	JOINT lowerback
	{
		OFFSET 0 0 0
		CHANNELS 3 Zrotation Yrotation Xrotation
		JOINT Chest
		{
			OFFSET -0.02651 1.86275 -0.11152
			CHANNELS 3 Zrotation Yrotation Xrotation
			JOINT Chest2
			{
				OFFSET 0.01019 1.86224 0.04087
				CHANNELS 3 Zrotation Yrotation Xrotation
				JOINT lowerneck
				{
					OFFSET 0 0 0
					CHANNELS 3 Zrotation Yrotation Xrotation
					JOINT Neck
					{
						OFFSET -0.01926 1.80512 0.08867
						CHANNELS 3 Zrotation Yrotation Xrotation
						JOINT Head
						{
							OFFSET 0.05516 1.76451 -0.38475
							CHANNELS 3 Zrotation Yrotation Xrotation
							End Site
							{
								OFFSET 0.01592 1.82587 -0.14001
							}
						}
					}
				}
				JOINT LeftCollar
				{
					OFFSET 0 0 0
					CHANNELS 3 Zrotation Yrotation Xrotation
					JOINT LeftShoulder
					{
						OFFSET 3.47116 1.51376 0.14491
CHANNELS 3 Zrotation Xrotation Yrotation
						JOINT LeftElbow
						{
OFFSET 0 -4.780950 0.000000
CHANNELS 3 Zrotation Xrotation Yrotation
							JOINT LeftWrist
							{
OFFSET 0 -3.586150 -0.000000
CHANNELS 3 Zrotation Xrotation Yrotation
								JOINT lhand
								{
									OFFSET 0 0 0
CHANNELS 3 Zrotation Xrotation Yrotation
									JOINT LFingers
									{
OFFSET 0 -0.659810 0.000000
CHANNELS 3 Zrotation Xrotation Yrotation
										End Site
										{
OFFSET 0 -0.531960 0.000000
										}
									}
								}
								JOINT LThumb
								{
OFFSET 0 0.000000 0.000000
CHANNELS 3 Zrotation Xrotation Yrotation
									End Site
									{
OFFSET 0 -0.540080 0.540080
									}
								}
							}
						}
					}
				}
				JOINT RightCollar
				{
					OFFSET 0 0 0
					CHANNELS 3 Zrotation Yrotation Xrotation
					JOINT RightShoulder
					{
						OFFSET -3.31725 1.61216 0.35156
CHANNELS 3 Zrotation Xrotation Yrotation
						JOINT RightElbow
						{
OFFSET 0 -4.489130 0.000000
CHANNELS 3 Zrotation Xrotation Yrotation
							JOINT RightWrist
							{
OFFSET 0 -3.705100 0.000000
CHANNELS 3 Zrotation Xrotation Yrotation
								JOINT rhand
								{
									OFFSET 0 0 0
CHANNELS 3 Zrotation Xrotation Yrotation
									JOINT RFingers
									{
OFFSET 0 -0.449140 0.000000
CHANNELS 3 Zrotation Xrotation Yrotation
										End Site
										{
OFFSET 0 -0.362110 0.000000
										}
									}
								}
								JOINT RThumb
								{
OFFSET 0 0.000000 0.000000
CHANNELS 3 Zrotation Xrotation Yrotation
									End Site
									{
OFFSET 0 -0.367630 0.367630
									}
								}
							}
						}
					}
				}
			}
		}
	}
}
MOTION
Frames: 11
Frame Time: 0.008333333333333333
-0.506116 18.844074 5.096584 -1.180058 4.637741 26.517632 0.000000 0.000000 0.000000 -6.388366 -15.273927 -38.997627 2.312029 9.487775 27.333281 0.668809 2.465562 -16.535673 8.457286 -16.445506 -54.193573 0.000000 0.000000 0.000000 12.721484 7.501093 -26.003554 -0.232906 -3.106332 8.575020 -0.978574 -9.809266 -24.655406 -0.027001 1.060170 -2.914352 1.101143 0.985194 28.546028 0.145209 1.626588 3.235471 -1.088152 0.688278 -12.176132 -2.103198 -1.541933 -11.830416 4.981303 -2.468779 13.516877 1.712380 -0.907364 6.133673 0.000000 0.000000 0.000000 11.092193 -37.041503 -50.423662 25.689868 -36.900759 8.700755 27.692717 -4.957087 39.721117 0.000000 0.000000 0.000000 -7.125000 0.000000 0.000000 -3.938443 -13.108138 -4.738801 0.000000 0.000000 0.000000 -19.574182 -29.707941 47.267399 -26.336134 -37.538669 -9.091672 -28.882026 26.357082 31.466911 0.000000 0.000000 0.000000 7.125000 0.000000 0.000000 3.600820 64.897080 -1.734072
-0.506686 18.846384 5.085680 -1.079961 4.810938 26.525572 0.000000 0.000000 0.000000 -6.423421 -15.429739 -39.052340 2.313992 9.491611 27.345651 0.658701 2.452804 -16.412889 8.438261 -16.432304 -54.126381 0.000000 0.000000 0.000000 12.701964 7.323579 -26.019339 -0.230108 -3.087703 8.523047 -0.977908 -9.836832 -24.673188 -0.024287 1.006471 -2.766753 1.050342 0.900414 28.748499 0.115913 1.502159 3.189778 -1.050018 0.631594 -12.338224 -1.830920 -1.169239 -11.698966 4.042556 -1.862031 13.272166 1.421595 -0.678039 5.999104 0.000000 0.000000 0.000000 10.825653 -37.133999 -50.003076 25.576348 -36.787275 8.632696 27.844615 -4.989015 39.525874 0.000000 0.000000 0.000000 -7.125000 0.000000 0.000000 -3.815044 -12.955592 -4.582166 0.000000 0.000000 0.000000 -19.601838 -29.806274 47.560117 -26.501029 -37.699151 -9.192294 -28.802395 26.150708 31.188109 0.000000 0.000000 0.000000 7.125000 0.000000 0.000000 3.541189 64.583326 -1.679607
-0.507686 18.848004 5.079349 -1.037964 5.047940 26.529186 0.000000 0.000000 0.000000 -6.373436 -15.610077 -39.108521 2.317881 9.498988 27.368954 0.655487 2.369654 -16.333024 8.386640 -16.396340 -53.943470 0.000000 0.000000 0.000000 12.764467 7.104925 -26.012722 -0.225120 -3.053884 8.428734 -0.980109 -9.826844 -24.682397 -0.021721 0.951641 -2.615857 1.026772 0.774946 28.818679 0.106583 1.334532 3.219202 -0.984212 0.557324 -12.344365 -1.523806 -0.841630 -11.850130 3.200676 -1.343751 13.217039 1.148187 -0.476647 5.983180 0.000000 0.000000 0.000000 10.965503 -37.325794 -49.695416 25.627501 -36.838501 8.663366 27.758647 -5.215625 39.415099 0.000000 0.000000 0.000000 -7.125000 0.000000 0.000000 -3.832401 -12.819768 -4.596249 0.000000 0.000000 0.000000 -19.571007 -29.939280 47.791240 -26.655490 -37.848643 -9.287000 -28.847153 26.064836 31.044311 0.000000 0.000000 0.000000 7.125000 0.000000 0.000000 3.402891 64.445332 -1.603231
-0.502155 18.849658 5.089685 -1.235615 5.063816 26.526690 0.000000 0.000000 0.000000 -6.175362 -15.562350 -39.116596 2.327319 9.516916 27.426211 0.666183 2.348206 -16.444319 8.332426 -16.358426 -53.751505 0.000000 0.000000 0.000000 12.954540 7.146614 -25.846636 -0.211691 -2.962127 8.173219 -0.958417 -9.947964 -24.607886 -0.021512 0.946283 -2.600986 1.024977 0.726496 28.602214 0.146709 1.274348 3.283631 -0.909715 0.534040 -12.158854 -1.407303 -0.529859 -11.857337 2.637909 -0.856495 13.102936 0.992021 -0.279462 5.933009 0.000000 0.000000 0.000000 11.084290 -37.445237 -49.375113 25.685486 -36.896423 8.698134 27.969051 -5.389615 39.307711 0.000000 0.000000 0.000000 -7.125000 0.000000 0.000000 -3.700055 -12.771935 -4.434607 0.000000 0.000000 0.000000 -19.704812 -30.105558 48.161496 -26.835036 -38.021412 -9.397361 -28.917432 25.740424 30.862658 0.000000 0.000000 0.000000 7.125000 0.000000 0.000000 3.212123 64.274804 -1.500343
-0.498619 18.850225 5.088559 -1.299612 5.234463 26.522751 0.000000 0.000000 0.000000 -6.059406 -15.669610 -39.155829 2.333964 9.529572 27.466347 0.664300 2.355666 -16.426670 8.351351 -16.371713 -53.818647 0.000000 0.000000 0.000000 13.080676 7.008920 -25.766678 -0.202498 -2.897668 7.994076 -0.943256 -10.053980 -24.574450 -0.020870 0.932669 -2.563575 0.943155 0.642042 28.615210 0.220749 1.152275 3.256662 -0.731957 0.484883 -12.202957 -1.310048 -0.272710 -11.711709 2.129920 -0.448770 12.907447 0.849225 -0.118241 5.836353 0.000000 0.000000 0.000000 11.025633 -37.495797 -49.149488 25.608586 -36.819586 8.652040 28.108633 -5.331237 39.535962 0.000000 0.000000 0.000000 -7.125000 0.000000 0.000000 -3.683681 -13.041280 -4.427862 0.000000 0.000000 0.000000 -19.954930 -30.268735 48.459945 -26.947787 -38.129349 -9.466847 -28.840374 25.583679 31.056261 0.000000 0.000000 0.000000 7.125000 0.000000 0.000000 3.418048 64.456093 -1.611029
-0.497788 18.849408 5.076692 -1.226013 5.640791 26.427639 0.000000 0.000000 0.000000 -6.026586 -15.980621 -39.100785 2.333510 9.528718 27.463560 0.658919 2.318691 -16.345913 8.327001 -16.354531 -53.731949 0.000000 0.000000 0.000000 13.182565 6.616767 -25.745878 -0.203687 -2.905812 8.016654 -0.959261 -9.970898 -24.633820 -0.014525 0.777156 -2.135903 1.004220 0.533028 28.923614 0.199830 1.034235 3.217558 -0.751207 0.426216 -12.409459 -1.105067 -0.131764 -11.690983 1.718621 -0.232185 12.737887 0.703313 -0.035109 5.774864 0.000000 0.000000 0.000000 11.099407 -37.672506 -49.452919 25.618731 -36.829731 8.658098 28.083801 -5.276995 39.492646 0.000000 0.000000 0.000000 -7.125000 0.000000 0.000000 -3.685840 -12.990631 -4.428074 0.000000 0.000000 0.000000 -20.079560 -30.331658 48.324752 -26.953958 -38.135256 -9.470637 -28.881645 25.645141 31.181101 0.000000 0.000000 0.000000 7.125000 0.000000 0.000000 3.436226 64.598337 -1.630946
-0.495406 18.851294 5.077108 -1.292288 5.718902 26.370623 0.000000 0.000000 0.000000 -5.964955 -15.988038 -39.048081 2.336108 9.533550 27.479146 0.663353 2.281314 -16.377434 8.319837 -16.349529 -53.706695 0.000000 0.000000 0.000000 13.278682 6.577786 -25.665659 -0.201786 -2.892485 7.979534 -0.951536 -10.035341 -24.625435 -0.019239 0.896337 -2.463708 0.979274 0.577637 28.919166 0.174442 1.079388 3.282316 -0.782448 0.448056 -12.330596 -0.917577 -0.017258 -11.853586 1.347375 -0.054665 12.643394 0.570326 0.032291 5.770068 0.000000 0.000000 0.000000 11.134658 -38.012704 -49.700934 25.658414 -36.869414 8.681931 27.900619 -5.460314 39.681092 0.000000 0.000000 0.000000 -7.125000 0.000000 0.000000 -3.823755 -13.127284 -4.601231 0.000000 0.000000 0.000000 -20.262103 -30.413946 48.094062 -26.963798 -38.144633 -9.476739 -28.839630 25.569295 31.030692 0.000000 0.000000 0.000000 7.125000 0.000000 0.000000 3.404363 64.429089 -1.602386
-0.492269 18.850228 5.076734 -1.396178 5.724884 26.380685 0.000000 0.000000 0.000000 -5.843587 -15.958411 -39.095824 2.342591 9.545823 27.518175 0.665981 2.259640 -16.396901 8.313058 -16.344801 -53.682711 0.000000 0.000000 0.000000 13.365365 6.646613 -25.673181 -0.202318 -2.896233 7.989987 -0.949474 -10.063167 -24.632337 -0.017927 0.863489 -2.373346 0.946903 0.645403 28.763839 0.166752 1.152501 3.358712 -0.797313 0.484357 -12.159849 -0.897250 0.149612 -11.991723 0.989543 0.220924 12.459309 0.476850 0.140034 5.732841 0.000000 0.000000 0.000000 11.007108 -38.359212 -49.805195 25.594806 -36.805806 8.643749 28.004090 -5.473624 39.667423 0.000000 0.000000 0.000000 -7.125000 0.000000 0.000000 -3.768117 -13.143278 -4.534835 0.000000 0.000000 0.000000 -20.500829 -30.665521 47.936843 -26.845532 -38.031494 -9.403780 -28.857650 25.468612 31.046441 0.000000 0.000000 0.000000 7.125000 0.000000 0.000000 3.390421 64.450638 -1.597493
-0.489273 18.848033 5.067753 -1.351324 5.942300 26.335495 0.000000 0.000000 0.000000 -5.806456 -16.210740 -39.099405 2.353458 9.566435 27.583848 0.664366 2.317004 -16.407637 8.316134 -16.346925 -53.693520 0.000000 0.000000 0.000000 13.389310 6.451464 -25.706942 -0.205243 -2.916898 8.047463 -0.952869 -10.061272 -24.658616 -0.018709 0.882258 -2.424908 0.947172 0.621728 28.887202 0.148081 1.122047 3.333635 -0.809484 0.469265 -12.253285 -0.548913 0.387691 -11.792383 0.230098 0.588240 12.114779 0.210028 0.278090 5.590993 0.000000 0.000000 0.000000 10.925094 -38.489813 -50.007127 25.653752 -36.864752 8.679093 27.920275 -5.349446 39.505657 0.000000 0.000000 0.000000 -7.125000 0.000000 0.000000 -3.771931 -12.956917 -4.530166 0.000000 0.000000 0.000000 -20.685190 -30.778298 47.790384 -26.698441 -37.890043 -9.313333 -28.867834 25.496122 31.080173 0.000000 0.000000 0.000000 7.125000 0.000000 0.000000 3.396503 64.488796 -1.603387
-0.489556 18.846169 5.071397 -1.515537 5.741025 26.491767 0.000000 0.000000 0.000000 -5.724188 -15.807927 -39.380853 2.366769 9.591594 27.663973 0.664929 2.152738 -16.330585 8.338788 -16.362822 -53.773911 0.000000 0.000000 0.000000 13.434346 6.775834 -25.836451 -0.204394 -2.910814 8.030681 -0.943740 -10.128718 -24.641501 -0.021951 0.955913 -2.627430 0.700828 0.810506 28.444741 0.167676 1.285334 3.355461 -0.699211 0.558106 -12.001069 -0.165033 0.749700 -11.659576 -0.636519 1.128321 11.837017 -0.081829 0.495551 5.487086 0.000000 0.000000 0.000000 10.852784 -38.679284 -50.037573 25.637528 -36.848528 8.669377 27.951923 -5.365609 39.519122 0.000000 0.000000 0.000000 -7.125000 0.000000 0.000000 -3.759014 -12.979440 -4.515738 0.000000 0.000000 0.000000 -20.874070 -30.930439 47.707275 -26.576878 -37.772651 -9.238740 -29.044069 25.543867 30.978911 0.000000 0.000000 0.000000 7.125000 0.000000 0.000000 3.115295 64.432233 -1.466428
-0.486360 18.843457 5.063996 -1.481917 5.977950 26.400583 0.000000 0.000000 0.000000 -5.674120 -16.096811 -39.316843 2.376903 9.610574 27.724697 0.662055 2.222540 -16.332671 8.375397 -16.388530 -53.903784 0.000000 0.000000 0.000000 13.492118 6.519728 -25.721567 -0.197965 -2.864923 7.902931 -0.956347 -10.068826 -24.692959 -0.009833 0.638769 -1.755414 0.779893 0.759827 28.620252 0.132902 1.242423 3.337100 -0.771576 0.532884 -12.111636 0.165778 1.141236 -11.382667 -1.350432 1.690593 11.399657 -0.316653 0.735814 5.314406 0.000000 0.000000 0.000000 10.831256 -38.833392 -50.150998 25.542858 -36.753658 8.612597 27.937208 -5.378511 39.497745 0.000000 0.000000 0.000000 -7.125000 0.000000 0.000000 -3.761368 -12.953836 -4.517399 0.000000 0.000000 0.000000 -20.958046 -30.951888 47.549462 -26.534041 -37.731220 -9.212495 -28.872434 25.520702 31.064446 0.000000 0.000000 0.000000 7.125000 0.000000 0.000000 3.381639 64.473653 -1.595202
